<?xml version="1.0" encoding="UTF-8"?>
<svg xmlns="http://www.w3.org/2000/svg" style="stroke-dasharray:none; shape-rendering:auto; font-family:'Arial'; text-rendering:auto; fill-opacity:1; color-interpolation:auto; color-rendering:auto; font-size:12; fill:black; stroke:black; image-rendering:auto; stroke-miterlimit:10; stroke-linecap:square; stroke-linejoin:miter; font-style:normal; stroke-width:1; stroke-dashoffset:0; font-weight:normal; stroke-opacity:1;" contentScriptType="text/ecmascript" preserveAspectRatio="xMidYMid meet" zoomAndPan="magnify" version="1.0" contentStyleType="text/css" xml:xlink="http://www.w3.org/1999/xlink" width="700" height="891"><rect x="0" y="696" width="700" height="195" ry="0" rx="0" style="stroke:#000000; fill:#BE9FC4" /><g componentSequence="2"><text x="-793" y="7" transform="rotate(270)" text-anchor="middle" style="font-weight:bold;font-size:10px;stroke:none; fill:#434343"><tspan dy="14" x="-793">Financeiro</tspan></text></g><rect x="0" y="196" width="700" height="350" ry="0" rx="0" style="stroke:#000000; fill:#82B0B7" /><g componentSequence="3"><text x="-371" y="7" transform="rotate(270)" text-anchor="middle" style="font-weight:bold;font-size:10px;stroke:none; fill:#434343"><tspan dy="14" x="-371">Aprovadores</tspan></text></g><rect x="0" y="0" width="700" height="197" ry="0" rx="0" style="stroke:#000000; fill:#C79D9D" /><g componentSequence="4"><text x="-98" y="7" transform="rotate(270)" text-anchor="middle" style="font-weight:bold;font-size:10px;stroke:none; fill:#434343"><tspan dy="14" x="-98">Emitente</tspan></text></g><rect x="0" y="546" width="700" height="150" ry="0" rx="0" style="stroke:#000000; fill:#ADC9AC" /><g componentSequence="1"><text x="-621" y="7" transform="rotate(270)" text-anchor="middle" style="font-weight:bold;font-size:10px;stroke:none; fill:#434343"><tspan dy="14" x="-621">Controladoria</tspan></text></g><g sequence="1"><ellipse cx="387" cy="116" rx="17" ry="17" stroke-width="1" style="fill:url(#linearGradient66FF6696FF96B6FFB6_1745194671);" stroke="336633" /></g><g sequence="9"><rect x="340" y="552" width="106" height="70" ry="5" rx="5" style="fill:url(#linearGradientF8FBFEEDF5FCDEEDFAD4E7F8E2E5E9_1724022239);" stroke="191970" /></g><g componentSequence="9"><text x="393" y="567" text-anchor="middle" style="font-weight:bold;font-size:10px;stroke:none; fill:#333399"><tspan dy="14" x="393">Verifica conta</tspan><tspan dy="14" x="393">contábil</tspan></text></g><g sequence="12"><rect x="350" y="820" width="106" height="70" ry="5" rx="5" style="fill:url(#linearGradientF8FBFEEDF5FCDEEDFAD4E7F8E2E5E9_1660806623);" stroke="191970" /></g><g componentSequence="12"><text x="403" y="835" text-anchor="middle" style="font-weight:bold;font-size:10px;stroke:none; fill:#333399"><tspan dy="14" x="403">Implantação no</tspan><tspan dy="14" x="403">TOTVS</tspan></text></g><g sequence="21"><rect x="90" y="347" width="106" height="56" ry="5" rx="5" style="fill:url(#linearGradientF8FBFEEDF5FCDEEDFAD4E7F8E2E5E9_671053796);" stroke="191970" /></g><g componentSequence="21"><text x="143" y="364" text-anchor="middle" style="font-weight:bold;font-size:10px;stroke:none; fill:#333399"><tspan dy="14" x="143">Aprovador</tspan></text></g><g sequence="54"><polygon points=" 360 354 390 324 420 354 390 384 360 354" style="fill:url(#linearGradientFAFBFCFFFFCC_1674306882);" stroke="000000" /></g><g componentSequence="54"><text x="390" y="394" text-anchor="middle" style="font-weight:bold;font-size:10px;stroke:none; fill:#333399"><tspan dy="14" x="390">Aprovaç</tspan><tspan dy="14" x="390">ão</tspan></text></g><g sequence="58"><polygon points=" 360 700 390 670 420 700 390 730 360 700" style="fill:url(#linearGradientFAFBFCFFFFCC_370298977);" stroke="000000" /></g><g componentSequence="58"><text x="390" y="740" text-anchor="middle" style="font-weight:bold;font-size:10px;stroke:none; fill:#333399"><tspan dy="14" x="390">Esta</tspan><tspan dy="14" x="390">tudo</tspan><tspan dy="14" x="390">certo?</tspan></text></g><g sequence="64"><ellipse cx="577" cy="847" rx="17" ry="17" stroke-width="3" style="fill:url(#linearGradientFF6666FF9696FFB6B6_466394209);" stroke="993333" /></g><g sequence="66"><rect x="150" y="200" width="106" height="84" ry="5" rx="5" style="fill:url(#linearGradientF8FBFEEDF5FCDEEDFAD4E7F8E2E5E9_1204848811);" stroke="191970" /></g><g componentSequence="66"><text x="203" y="215" text-anchor="middle" style="font-weight:bold;font-size:10px;stroke:none; fill:#333399"><tspan dy="14" x="203">Atividade</tspan><tspan dy="14" x="203">automatica de</tspan><tspan dy="14" x="203">visualização</tspan></text></g><g componentSequence="55"><text x="288" y="375" style="font-size:10px;font-weight:none;stroke:none; fill:#333399" text-anchor="left" /></g><g componentSequence="56"><text x="401" y="489" style="font-size:10px;font-weight:none;stroke:none; fill:#333399" text-anchor="left" /></g><g componentSequence="57"><text x="398" y="229" style="font-size:10px;font-weight:none;stroke:none; fill:#333399" text-anchor="left" /></g><g componentSequence="59"><text x="402" y="646" style="font-size:10px;font-weight:none;stroke:none; fill:#333399" text-anchor="left" /></g><g componentSequence="60"><text x="408" y="803" style="font-size:10px;font-weight:none;stroke:none; fill:#333399" text-anchor="left" /></g><g componentSequence="61"><text x="599" y="410" style="font-size:10px;font-weight:none;stroke:none; fill:#333399" text-anchor="left" /></g><g componentSequence="65"><text x="518" y="850" style="font-size:10px;font-weight:none;stroke:none; fill:#333399" text-anchor="left" /></g><g componentSequence="67"><text x="323" y="167" style="font-size:10px;font-weight:none;stroke:none; fill:#333399" text-anchor="left" /></g><g componentSequence="68"><text x="180" y="315" style="font-size:10px;font-weight:none;stroke:none; fill:#333399" text-anchor="left" /></g><g componentSequence="69"><text x="180" y="315" style="font-size:10px;font-weight:none;stroke:none; fill:#333399" text-anchor="left" /></g><path style="fill:none; stroke:#000000;stroke-width:1" d="M373.0 126.0 L256.0 205.0" /><polygon style="fill:#000000; stroke:#000000;" points=" 267 204 256 205 261 195 263 201" /><path style="fill:none; stroke:#000000;stroke-width:1" d="M389.0 323.0 L387.0 133.0" /><polygon style="fill:#000000; stroke:#000000;" points=" 382 143 387 133 392 143 387 141" /><path style="fill:none; stroke:#000000;stroke-width:1" d="M420.0 726.0 L589.0 717.0 L589.0 117.0 L404.0 116.0" /><polygon style="fill:#000000; stroke:#000000;" points=" 414 121 404 116 414 111 412 116" /><path style="fill:none; stroke:#000000;stroke-width:1" d="M392.0 622.0 L391.0 669.0" /><polygon style="fill:#000000; stroke:#000000;" points=" 396 659 391 669 386 659 391 661" /><path style="fill:none; stroke:#000000;stroke-width:1" d="M390.0 426.0 L392.0 551.0" /><polygon style="fill:#000000; stroke:#000000;" points=" 397 541 392 551 387 541 392 543" /><path style="fill:none; stroke:#000000;stroke-width:1" d="M456.0 852.0 L560.0 847.0" /><polygon style="fill:#000000; stroke:#000000;" points=" 550 842 560 847 550 852 552 847" /><path style="fill:none; stroke:#000000;stroke-width:1" d="M396.0 786.0 L399.0 819.0" /><polygon style="fill:#000000; stroke:#000000;" points=" 403 809 399 819 393 809 398 811" /><path style="fill:none; stroke:#000000;stroke-width:1" d="M196.0 375.0 L359.0 375.0" /><polygon style="fill:#000000; stroke:#000000;" points=" 349 370 359 375 349 380 351 375" /><path style="fill:none; stroke:#009600;stroke-width:1" d="M184.0 284.0 L156.0 346.0" /><polygon style="fill:#009600; stroke:#009600;" points=" 165 339 156 346 156 335 159 339" /><path style="fill:none; stroke:#000000;stroke-width:1" d="M184.0 284.0 L156.0 346.0" /><polygon style="fill:#000000; stroke:#000000;" points=" 165 339 156 346 156 335 159 339" /><defs><linearGradient xmlns:xlink="http://www.w3.org/1999/xlink" xlink:href="#linearGradient66FF6696FF96B6FFB6" id="linearGradient66FF6696FF96B6FFB6_1745194671" x1="0" y1="99.0" x2="0" y2="134.0" gradientUnits="userSpaceOnUse" xlink:type="simple" xlink:actuate="onLoad" xlink:show="other" /><linearGradient id="linearGradient66FF6696FF96B6FFB6"><stop style="stop-color:#66FF66;stop-opacity:1;" offset="0.0" id="stop66FF66" /><stop style="stop-color:#96FF96;stop-opacity:1;" offset="0.5" id="stop96FF96" /><stop style="stop-color:#B6FFB6;stop-opacity:1;" offset="1.0" id="stopB6FFB6" /></linearGradient><linearGradient xmlns:xlink="http://www.w3.org/1999/xlink" xlink:href="#linearGradientF8FBFEEDF5FCDEEDFAD4E7F8E2E5E9" id="linearGradientF8FBFEEDF5FCDEEDFAD4E7F8E2E5E9_1724022239" x1="0" y1="552.0" x2="0" y2="658.0" gradientUnits="userSpaceOnUse" xlink:type="simple" xlink:actuate="onLoad" xlink:show="other" /><linearGradient id="linearGradientF8FBFEEDF5FCDEEDFAD4E7F8E2E5E9"><stop style="stop-color:#F8FBFE;stop-opacity:1;" offset="0.0" id="stopF8FBFE" /><stop style="stop-color:#EDF5FC;stop-opacity:1;" offset="0.25" id="stopEDF5FC" /><stop style="stop-color:#DEEDFA;stop-opacity:1;" offset="0.5" id="stopDEEDFA" /><stop style="stop-color:#D4E7F8;stop-opacity:1;" offset="0.75" id="stopD4E7F8" /><stop style="stop-color:#E2E5E9;stop-opacity:1;" offset="1.0" id="stopE2E5E9" /></linearGradient><linearGradient xmlns:xlink="http://www.w3.org/1999/xlink" xlink:href="#linearGradientF8FBFEEDF5FCDEEDFAD4E7F8E2E5E9" id="linearGradientF8FBFEEDF5FCDEEDFAD4E7F8E2E5E9_1660806623" x1="0" y1="820.0" x2="0" y2="926.0" gradientUnits="userSpaceOnUse" xlink:type="simple" xlink:actuate="onLoad" xlink:show="other" /><linearGradient xmlns:xlink="http://www.w3.org/1999/xlink" xlink:href="#linearGradientF8FBFEEDF5FCDEEDFAD4E7F8E2E5E9" id="linearGradientF8FBFEEDF5FCDEEDFAD4E7F8E2E5E9_671053796" x1="0" y1="347.0" x2="0" y2="453.0" gradientUnits="userSpaceOnUse" xlink:type="simple" xlink:actuate="onLoad" xlink:show="other" /><linearGradient xmlns:xlink="http://www.w3.org/1999/xlink" xlink:href="#linearGradientFAFBFCFFFFCC" id="linearGradientFAFBFCFFFFCC_1674306882" x1="0" y1="324.0" x2="0" y2="384.0" gradientUnits="userSpaceOnUse" xlink:type="simple" xlink:actuate="onLoad" xlink:show="other" /><linearGradient id="linearGradientFAFBFCFFFFCC"><stop style="stop-color:#FAFBFC;stop-opacity:1;" offset="0.0" id="stopFAFBFC" /><stop style="stop-color:#FFFFCC;stop-opacity:1;" offset="1.0" id="stopFFFFCC" /></linearGradient><linearGradient xmlns:xlink="http://www.w3.org/1999/xlink" xlink:href="#linearGradientFAFBFCFFFFCC" id="linearGradientFAFBFCFFFFCC_370298977" x1="0" y1="670.0" x2="0" y2="730.0" gradientUnits="userSpaceOnUse" xlink:type="simple" xlink:actuate="onLoad" xlink:show="other" /><linearGradient xmlns:xlink="http://www.w3.org/1999/xlink" xlink:href="#linearGradientFF6666FF9696FFB6B6" id="linearGradientFF6666FF9696FFB6B6_466394209" x1="0" y1="830.0" x2="0" y2="865.0" gradientUnits="userSpaceOnUse" xlink:type="simple" xlink:actuate="onLoad" xlink:show="other" /><linearGradient id="linearGradientFF6666FF9696FFB6B6"><stop style="stop-color:#FF6666;stop-opacity:1;" offset="0.0" id="stopFF6666" /><stop style="stop-color:#FF9696;stop-opacity:1;" offset="0.5" id="stopFF9696" /><stop style="stop-color:#FFB6B6;stop-opacity:1;" offset="1.0" id="stopFFB6B6" /></linearGradient><linearGradient xmlns:xlink="http://www.w3.org/1999/xlink" xlink:href="#linearGradientF8FBFEEDF5FCDEEDFAD4E7F8E2E5E9" id="linearGradientF8FBFEEDF5FCDEEDFAD4E7F8E2E5E9_1204848811" x1="0" y1="200.0" x2="0" y2="306.0" gradientUnits="userSpaceOnUse" xlink:type="simple" xlink:actuate="onLoad" xlink:show="other" /></defs></svg>
