<?xml version="1.0" encoding="UTF-8"?>
<svg xmlns="http://www.w3.org/2000/svg" style="stroke-dasharray:none; shape-rendering:auto; font-family:'Arial'; text-rendering:auto; fill-opacity:1; color-interpolation:auto; color-rendering:auto; font-size:12; fill:black; stroke:black; image-rendering:auto; stroke-miterlimit:10; stroke-linecap:square; stroke-linejoin:miter; font-style:normal; stroke-width:1; stroke-dashoffset:0; font-weight:normal; stroke-opacity:1;" contentScriptType="text/ecmascript" preserveAspectRatio="xMidYMid meet" zoomAndPan="magnify" version="1.0" contentStyleType="text/css" xml:xlink="http://www.w3.org/1999/xlink" width="700" height="891"><rect x="0" y="0" width="700" height="197" ry="0" rx="0" style="stroke:#000000; fill:#C79D9D" /><g componentSequence="6"><text x="-98" y="7" transform="rotate(270)" text-anchor="middle" style="font-weight:bold;font-size:10px;stroke:none; fill:#434343"><tspan dy="14" x="-98">Emitente</tspan></text></g><rect x="0" y="196" width="700" height="350" ry="0" rx="0" style="stroke:#000000; fill:#82B0B7" /><g componentSequence="7"><text x="-371" y="7" transform="rotate(270)" text-anchor="middle" style="font-weight:bold;font-size:10px;stroke:none; fill:#434343"><tspan dy="14" x="-371">Aprovadores</tspan></text></g><rect x="0" y="696" width="700" height="195" ry="0" rx="0" style="stroke:#000000; fill:#BE9FC4" /><g componentSequence="11"><text x="-793" y="7" transform="rotate(270)" text-anchor="middle" style="font-weight:bold;font-size:10px;stroke:none; fill:#434343"><tspan dy="14" x="-793">Financeiro</tspan></text></g><rect x="0" y="546" width="700" height="150" ry="0" rx="0" style="stroke:#000000; fill:#ADC9AC" /><g componentSequence="8"><text x="-621" y="7" transform="rotate(270)" text-anchor="middle" style="font-weight:bold;font-size:10px;stroke:none; fill:#434343"><tspan dy="14" x="-621">Controladoria</tspan></text></g><g sequence="1"><ellipse cx="387" cy="116" rx="17" ry="17" stroke-width="1" style="fill:url(#linearGradient66FF6696FF96B6FFB6_285046220);" stroke="336633" /></g><g sequence="9"><rect x="340" y="552" width="106" height="70" ry="5" rx="5" style="fill:url(#linearGradientF8FBFEEDF5FCDEEDFAD4E7F8E2E5E9_507156899);" stroke="191970" /></g><g componentSequence="9"><text x="393" y="567" text-anchor="middle" style="font-weight:bold;font-size:10px;stroke:none; fill:#333399"><tspan dy="14" x="393">Verifica conta</tspan><tspan dy="14" x="393">contábil</tspan></text></g><g sequence="12"><rect x="150" y="810" width="106" height="70" ry="5" rx="5" style="fill:url(#linearGradientF8FBFEEDF5FCDEEDFAD4E7F8E2E5E9_436543164);" stroke="191970" /></g><g componentSequence="12"><text x="203" y="825" text-anchor="middle" style="font-weight:bold;font-size:10px;stroke:none; fill:#333399"><tspan dy="14" x="203">Implantação no</tspan><tspan dy="14" x="203">TOTVS</tspan></text></g><g sequence="21"><rect x="90" y="347" width="106" height="56" ry="5" rx="5" style="fill:url(#linearGradientF8FBFEEDF5FCDEEDFAD4E7F8E2E5E9_1594332056);" stroke="191970" /></g><g componentSequence="21"><text x="143" y="364" text-anchor="middle" style="font-weight:bold;font-size:10px;stroke:none; fill:#333399"><tspan dy="14" x="143">Aprovador</tspan></text></g><g sequence="54"><polygon points=" 360 354 390 324 420 354 390 384 360 354" style="fill:url(#linearGradientFAFBFCFFFFCC_607116961);" stroke="000000" /></g><g componentSequence="54"><text x="390" y="394" text-anchor="middle" style="font-weight:bold;font-size:10px;stroke:none; fill:#333399"><tspan dy="14" x="390">Aprovaç</tspan><tspan dy="14" x="390">ão</tspan></text></g><g sequence="58"><polygon points=" 360 680 390 650 420 680 390 710 360 680" style="fill:url(#linearGradientFAFBFCFFFFCC_1846717446);" stroke="000000" /></g><g componentSequence="58"><text x="390" y="720" text-anchor="middle" style="font-weight:bold;font-size:10px;stroke:none; fill:#333399"><tspan dy="14" x="390">Esta</tspan><tspan dy="14" x="390">tudo</tspan><tspan dy="14" x="390">certo?</tspan></text></g><g sequence="62"><rect x="370" y="810" width="105" height="70" ry="5" rx="5" style="fill:url(#linearGradientF8FBFEEDF5FCDEEDFAD4E7F8E2E5E9_1557184390);" stroke="191970" /></g><g componentSequence="62"><text x="422" y="825" text-anchor="middle" style="font-weight:bold;font-size:10px;stroke:none; fill:#333399"><tspan dy="14" x="422">Anexo de</tspan><tspan dy="14" x="422">comprovante</tspan></text></g><g sequence="64"><ellipse cx="617" cy="837" rx="17" ry="17" stroke-width="3" style="fill:url(#linearGradientFF6666FF9696FFB6B6_1059613911);" stroke="993333" /></g><g componentSequence="53"><text x="280" y="240" style="font-size:10px;font-weight:none;stroke:none; fill:#333399" text-anchor="left" /></g><g componentSequence="55"><text x="288" y="375" style="font-size:10px;font-weight:none;stroke:none; fill:#333399" text-anchor="left" /></g><g componentSequence="56"><text x="401" y="489" style="font-size:10px;font-weight:none;stroke:none; fill:#333399" text-anchor="left" /></g><g componentSequence="57"><text x="398" y="229" style="font-size:10px;font-weight:none;stroke:none; fill:#333399" text-anchor="left" /></g><g componentSequence="59"><text x="402" y="636" style="font-size:10px;font-weight:none;stroke:none; fill:#333399" text-anchor="left" /></g><g componentSequence="63"><text x="323" y="845" style="font-size:10px;font-weight:none;stroke:none; fill:#333399" text-anchor="left" /></g><g componentSequence="60"><text x="315" y="770" style="font-size:10px;font-weight:none;stroke:none; fill:#333399" text-anchor="left" /></g><g componentSequence="65"><text x="547" y="840" style="font-size:10px;font-weight:none;stroke:none; fill:#333399" text-anchor="left" /></g><g componentSequence="61"><text x="599" y="410" style="font-size:10px;font-weight:none;stroke:none; fill:#333399" text-anchor="left" /></g><path style="fill:none; stroke:#000000;stroke-width:1" d="M375.0 129.0 L169.0 346.0" /><polygon style="fill:#000000; stroke:#000000;" points=" 180 342 169 346 172 335 175 340" /><path style="fill:none; stroke:#000000;stroke-width:1" d="M389.0 323.0 L387.0 133.0" /><polygon style="fill:#000000; stroke:#000000;" points=" 382 143 387 133 392 143 387 141" /><path style="fill:none; stroke:#000000;stroke-width:1" d="M420.0 709.0 L589.0 717.0 L589.0 117.0 L404.0 116.0" /><polygon style="fill:#000000; stroke:#000000;" points=" 414 121 404 116 414 111 412 116" /><path style="fill:none; stroke:#000000;stroke-width:1" d="M392.0 622.0 L391.0 649.0" /><polygon style="fill:#000000; stroke:#000000;" points=" 396 639 391 649 386 639 391 641" /><path style="fill:none; stroke:#000000;stroke-width:1" d="M390.0 426.0 L392.0 551.0" /><polygon style="fill:#000000; stroke:#000000;" points=" 397 541 392 551 387 541 392 543" /><path style="fill:none; stroke:#000000;stroke-width:1" d="M359.0 730.0 L251.0 809.0" /><polygon style="fill:#000000; stroke:#000000;" points=" 262 807 251 809 256 799 257 804" /><path style="fill:none; stroke:#000000;stroke-width:1" d="M196.0 375.0 L359.0 375.0" /><polygon style="fill:#000000; stroke:#000000;" points=" 349 370 359 375 349 380 351 375" /><path style="fill:none; stroke:#000000;stroke-width:1" d="M256.0 845.0 L369.0 845.0" /><polygon style="fill:#000000; stroke:#000000;" points=" 359 840 369 845 359 850 361 845" /><path style="fill:none; stroke:#000000;stroke-width:1" d="M475.0 842.0 L600.0 837.0" /><polygon style="fill:#000000; stroke:#000000;" points=" 590 832 600 837 590 842 592 837" /><defs><linearGradient xmlns:xlink="http://www.w3.org/1999/xlink" xlink:href="#linearGradient66FF6696FF96B6FFB6" id="linearGradient66FF6696FF96B6FFB6_285046220" x1="0" y1="99.0" x2="0" y2="134.0" gradientUnits="userSpaceOnUse" xlink:type="simple" xlink:actuate="onLoad" xlink:show="other" /><linearGradient id="linearGradient66FF6696FF96B6FFB6"><stop style="stop-color:#66FF66;stop-opacity:1;" offset="0.0" id="stop66FF66" /><stop style="stop-color:#96FF96;stop-opacity:1;" offset="0.5" id="stop96FF96" /><stop style="stop-color:#B6FFB6;stop-opacity:1;" offset="1.0" id="stopB6FFB6" /></linearGradient><linearGradient xmlns:xlink="http://www.w3.org/1999/xlink" xlink:href="#linearGradientF8FBFEEDF5FCDEEDFAD4E7F8E2E5E9" id="linearGradientF8FBFEEDF5FCDEEDFAD4E7F8E2E5E9_507156899" x1="0" y1="552.0" x2="0" y2="658.0" gradientUnits="userSpaceOnUse" xlink:type="simple" xlink:actuate="onLoad" xlink:show="other" /><linearGradient id="linearGradientF8FBFEEDF5FCDEEDFAD4E7F8E2E5E9"><stop style="stop-color:#F8FBFE;stop-opacity:1;" offset="0.0" id="stopF8FBFE" /><stop style="stop-color:#EDF5FC;stop-opacity:1;" offset="0.25" id="stopEDF5FC" /><stop style="stop-color:#DEEDFA;stop-opacity:1;" offset="0.5" id="stopDEEDFA" /><stop style="stop-color:#D4E7F8;stop-opacity:1;" offset="0.75" id="stopD4E7F8" /><stop style="stop-color:#E2E5E9;stop-opacity:1;" offset="1.0" id="stopE2E5E9" /></linearGradient><linearGradient xmlns:xlink="http://www.w3.org/1999/xlink" xlink:href="#linearGradientF8FBFEEDF5FCDEEDFAD4E7F8E2E5E9" id="linearGradientF8FBFEEDF5FCDEEDFAD4E7F8E2E5E9_436543164" x1="0" y1="810.0" x2="0" y2="916.0" gradientUnits="userSpaceOnUse" xlink:type="simple" xlink:actuate="onLoad" xlink:show="other" /><linearGradient xmlns:xlink="http://www.w3.org/1999/xlink" xlink:href="#linearGradientF8FBFEEDF5FCDEEDFAD4E7F8E2E5E9" id="linearGradientF8FBFEEDF5FCDEEDFAD4E7F8E2E5E9_1594332056" x1="0" y1="347.0" x2="0" y2="453.0" gradientUnits="userSpaceOnUse" xlink:type="simple" xlink:actuate="onLoad" xlink:show="other" /><linearGradient xmlns:xlink="http://www.w3.org/1999/xlink" xlink:href="#linearGradientFAFBFCFFFFCC" id="linearGradientFAFBFCFFFFCC_607116961" x1="0" y1="324.0" x2="0" y2="384.0" gradientUnits="userSpaceOnUse" xlink:type="simple" xlink:actuate="onLoad" xlink:show="other" /><linearGradient id="linearGradientFAFBFCFFFFCC"><stop style="stop-color:#FAFBFC;stop-opacity:1;" offset="0.0" id="stopFAFBFC" /><stop style="stop-color:#FFFFCC;stop-opacity:1;" offset="1.0" id="stopFFFFCC" /></linearGradient><linearGradient xmlns:xlink="http://www.w3.org/1999/xlink" xlink:href="#linearGradientFAFBFCFFFFCC" id="linearGradientFAFBFCFFFFCC_1846717446" x1="0" y1="650.0" x2="0" y2="710.0" gradientUnits="userSpaceOnUse" xlink:type="simple" xlink:actuate="onLoad" xlink:show="other" /><linearGradient xmlns:xlink="http://www.w3.org/1999/xlink" xlink:href="#linearGradientF8FBFEEDF5FCDEEDFAD4E7F8E2E5E9" id="linearGradientF8FBFEEDF5FCDEEDFAD4E7F8E2E5E9_1557184390" x1="0" y1="810.0" x2="0" y2="915.0" gradientUnits="userSpaceOnUse" xlink:type="simple" xlink:actuate="onLoad" xlink:show="other" /><linearGradient xmlns:xlink="http://www.w3.org/1999/xlink" xlink:href="#linearGradientFF6666FF9696FFB6B6" id="linearGradientFF6666FF9696FFB6B6_1059613911" x1="0" y1="820.0" x2="0" y2="855.0" gradientUnits="userSpaceOnUse" xlink:type="simple" xlink:actuate="onLoad" xlink:show="other" /><linearGradient id="linearGradientFF6666FF9696FFB6B6"><stop style="stop-color:#FF6666;stop-opacity:1;" offset="0.0" id="stopFF6666" /><stop style="stop-color:#FF9696;stop-opacity:1;" offset="0.5" id="stopFF9696" /><stop style="stop-color:#FFB6B6;stop-opacity:1;" offset="1.0" id="stopFFB6B6" /></linearGradient></defs></svg>
