<?xml version="1.0" encoding="UTF-8"?>
<svg xmlns="http://www.w3.org/2000/svg" style="stroke-dasharray:none; shape-rendering:auto; font-family:'Arial'; text-rendering:auto; fill-opacity:1; color-interpolation:auto; color-rendering:auto; font-size:12; fill:black; stroke:black; image-rendering:auto; stroke-miterlimit:10; stroke-linecap:square; stroke-linejoin:miter; font-style:normal; stroke-width:1; stroke-dashoffset:0; font-weight:normal; stroke-opacity:1;" contentScriptType="text/ecmascript" preserveAspectRatio="xMidYMid meet" zoomAndPan="magnify" version="1.0" contentStyleType="text/css" xml:xlink="http://www.w3.org/1999/xlink" width="866" height="572"><rect x="0" y="185" width="700" height="196" ry="0" rx="0" style="stroke:#000000; fill:#82B0B7" /><g componentSequence="2"><text x="-283" y="7" transform="rotate(270)" text-anchor="middle" style="font-weight:bold;font-size:10px;stroke:none; fill:#434343"><tspan dy="14" x="-283">APROVAÇÃO</tspan></text></g><rect x="0" y="0" width="700" height="181" ry="0" rx="0" style="stroke:#000000; fill:#9FC1C6" /><g componentSequence="1"><text x="-90" y="7" transform="rotate(270)" text-anchor="middle" style="font-weight:bold;font-size:10px;stroke:none; fill:#434343"><tspan dy="14" x="-90">CADASTRO</tspan></text></g><rect x="0" y="385" width="700" height="187" ry="0" rx="0" style="stroke:#000000; fill:#ADC9AC" /><g componentSequence="3"><text x="-478" y="7" transform="rotate(270)" text-anchor="middle" style="font-weight:bold;font-size:10px;stroke:none; fill:#434343"><tspan dy="14" x="-478">EXECUÇÃO</tspan></text></g><g sequence="5"><rect x="56" y="254" width="106" height="70" ry="5" rx="5" style="fill:url(#linearGradientF8FBFEEDF5FCDEEDFAD4E7F8E2E5E9_398015908);" stroke="191970" /></g><g componentSequence="5"><text x="109" y="269" text-anchor="middle" style="font-weight:bold;font-size:10px;stroke:none; fill:#333399"><tspan dy="14" x="109">Aprovação da</tspan><tspan dy="14" x="109">SA</tspan></text></g><g sequence="7"><polygon points=" 258 289 288 259 318 289 288 319 258 289" style="fill:url(#linearGradientFAFBFCFFFFCC_427737379);" stroke="000000" /></g><g componentSequence="7"><text x="288" y="329" text-anchor="middle" style="font-weight:bold;font-size:10px;stroke:none; fill:#333399"><tspan dy="14" x="288">Automáti</tspan><tspan dy="14" x="288">co</tspan></text></g><g sequence="10"><rect x="228" y="441" width="106" height="56" ry="5" rx="5" style="fill:url(#linearGradientF8FBFEEDF5FCDEEDFAD4E7F8E2E5E9_490821332);" stroke="191970" /></g><g componentSequence="10"><text x="281" y="458" text-anchor="middle" style="font-weight:bold;font-size:10px;stroke:none; fill:#333399"><tspan dy="14" x="281">Execução da SA</tspan></text></g><g sequence="12"><polygon points=" 607 475 637 445 667 475 637 505 607 475" style="fill:url(#linearGradientFAFBFCFFFFCC_1480837912);" stroke="000000" /></g><g componentSequence="12"><text x="637" y="515" text-anchor="middle" style="font-weight:bold;font-size:10px;stroke:none; fill:#333399"><tspan dy="14" x="637">Automáti</tspan><tspan dy="14" x="637">co</tspan></text></g><g sequence="15"><ellipse cx="848" cy="470" rx="17" ry="17" stroke-width="3" style="fill:url(#linearGradientFF6666FF9696FFB6B6_113875369);" stroke="993333" /></g><g sequence="17"><ellipse cx="390" cy="284" rx="17" ry="17" stroke-width="3" style="fill:url(#linearGradientFF6666FF9696FFB6B6_1775318922);" stroke="993333" /></g><g sequence="19"><ellipse cx="286" cy="64" rx="17" ry="17" stroke-width="1" style="fill:url(#linearGradient66FF6696FF96B6FFB6_2125544338);" stroke="336633" /></g><rect x="390" y="0" width="105" height="55" ry="5" rx="5" style="stroke:none; fill:#FFFFE0" /><g componentSequence="20"><text x="400" y="13" text-anchor="left" style="font-weight:bold;font-size:10px;stroke:none; fill:#000000"><tspan dy="14" x="400">Cadastrar SA</tspan></text></g><path style="fill:none; stroke-width:1; stroke:#000000;" d="M410.0 0.0 L390.0 0.0 L390.0 55.0 L410.0 55.0" /><g sequence="25"><rect x="400" y="440" width="105" height="55" ry="5" rx="5" style="fill:url(#linearGradientF8FBFEEDF5FCDEEDFAD4E7F8E2E5E9_946615383);" stroke="191970" /></g><g componentSequence="25"><text x="452" y="459" text-anchor="middle" style="font-weight:bold;font-size:10px;stroke:none; fill:#333399"><tspan dy="14" x="452">Atividade</tspan></text></g><g componentSequence="8"><text x="220" y="301" style="font-size:10px;font-weight:none;stroke:none; fill:#333399" text-anchor="left" /></g><g componentSequence="16"><text x="759" y="482" style="font-size:10px;font-weight:none;stroke:none; fill:#333399" text-anchor="left" /></g><g componentSequence="18"><text x="355" y="296" style="font-size:10px;font-weight:none;stroke:none; fill:#333399" text-anchor="left" /></g><g componentSequence="22"><text x="297" y="170" style="font-size:10px;font-weight:none;stroke:none; fill:#333399" text-anchor="left" /></g><g componentSequence="23"><text x="464" y="270" style="font-size:10px;font-weight:none;stroke:none; fill:#333399" text-anchor="left" /></g><g componentSequence="24"><text x="215" y="168" style="font-size:10px;font-weight:none;stroke:none; fill:#333399" text-anchor="left" /></g><g componentSequence="20"><text x="357" y="50" style="font-size:10px;font-weight:none;stroke:none; fill:#333399" text-anchor="left" /></g><g componentSequence="27"><text x="566" y="483" style="font-size:10px;font-weight:none;stroke:none; fill:#333399" text-anchor="left" /></g><g componentSequence="26"><text x="377" y="468" style="font-size:10px;font-weight:none;stroke:none; fill:#333399" text-anchor="left" /></g><g componentSequence="11"><text x="294" y="401" style="font-size:10px;font-weight:none;stroke:none; fill:#333399" text-anchor="left" /></g><path style="fill:none; stroke:#000000;stroke-width:1" d="M162.0 295.0 L257.0 306.0" /><polygon style="fill:#000000; stroke:#000000;" points=" 248 300 257 306 246 310 249 305" /><path style="fill:none; stroke:#000000;stroke-width:1" d="M275.0 78.0 L137.0 253.0" /><polygon style="fill:#000000; stroke:#000000;" points=" 147 248 137 253 139 242 142 247" /><path style="fill:none; stroke:#000000;stroke-width:1" d="M285.0 361.0 L282.0 440.0" /><polygon style="fill:#000000; stroke:#000000;" points=" 287 430 282 440 277 430 282 432" /><path style="fill:none; stroke:#000000;stroke-width:1" d="M318.0 302.0 L373.0 288.0" /><polygon style="fill:#000000; stroke:#000000;" points=" 362 286 373 288 365 295 365 290" /><path style="fill:none; stroke:#000000;stroke-width:1" d="M287.0 258.0 L286.0 81.0" /><polygon style="fill:#000000; stroke:#000000;" points=" 281 91 286 81 291 91 286 89" /><path style="fill:none; stroke:#000000;stroke-width:1" d="M667.0 492.0 L831.0 472.0" /><polygon style="fill:#000000; stroke:#000000;" points=" 820 468 831 472 822 478 823 473" /><path style="fill:none; stroke:#000000;stroke-width:1" d="M606.0 458.0 L297.0 77.0" /><polygon style="fill:#000000; stroke:#000000;" points=" 299 88 297 77 307 82 302 83" /><path style="fill:none; stroke:#000000;stroke-dasharray:2" d="M389.0 40.0 L303.0 60.0" /><path style="fill:none; stroke:#000000;stroke-width:1" d="M334.0 468.0 L399.0 468.0" /><polygon style="fill:#000000; stroke:#000000;" points=" 389 463 399 468 389 473 391 468" /><path style="fill:none; stroke:#000000;stroke-width:1" d="M505.0 475.0 L606.0 491.0" /><polygon style="fill:#000000; stroke:#000000;" points=" 597 484 606 491 595 494 598 490" /><defs><linearGradient xmlns:xlink="http://www.w3.org/1999/xlink" xlink:href="#linearGradientF8FBFEEDF5FCDEEDFAD4E7F8E2E5E9" id="linearGradientF8FBFEEDF5FCDEEDFAD4E7F8E2E5E9_398015908" x1="0" y1="254.0" x2="0" y2="360.0" gradientUnits="userSpaceOnUse" xlink:type="simple" xlink:actuate="onLoad" xlink:show="other" /><linearGradient id="linearGradientF8FBFEEDF5FCDEEDFAD4E7F8E2E5E9"><stop style="stop-color:#F8FBFE;stop-opacity:1;" offset="0.0" id="stopF8FBFE" /><stop style="stop-color:#EDF5FC;stop-opacity:1;" offset="0.25" id="stopEDF5FC" /><stop style="stop-color:#DEEDFA;stop-opacity:1;" offset="0.5" id="stopDEEDFA" /><stop style="stop-color:#D4E7F8;stop-opacity:1;" offset="0.75" id="stopD4E7F8" /><stop style="stop-color:#E2E5E9;stop-opacity:1;" offset="1.0" id="stopE2E5E9" /></linearGradient><linearGradient xmlns:xlink="http://www.w3.org/1999/xlink" xlink:href="#linearGradientFAFBFCFFFFCC" id="linearGradientFAFBFCFFFFCC_427737379" x1="0" y1="259.0" x2="0" y2="319.0" gradientUnits="userSpaceOnUse" xlink:type="simple" xlink:actuate="onLoad" xlink:show="other" /><linearGradient id="linearGradientFAFBFCFFFFCC"><stop style="stop-color:#FAFBFC;stop-opacity:1;" offset="0.0" id="stopFAFBFC" /><stop style="stop-color:#FFFFCC;stop-opacity:1;" offset="1.0" id="stopFFFFCC" /></linearGradient><linearGradient xmlns:xlink="http://www.w3.org/1999/xlink" xlink:href="#linearGradientF8FBFEEDF5FCDEEDFAD4E7F8E2E5E9" id="linearGradientF8FBFEEDF5FCDEEDFAD4E7F8E2E5E9_490821332" x1="0" y1="441.0" x2="0" y2="547.0" gradientUnits="userSpaceOnUse" xlink:type="simple" xlink:actuate="onLoad" xlink:show="other" /><linearGradient xmlns:xlink="http://www.w3.org/1999/xlink" xlink:href="#linearGradientFAFBFCFFFFCC" id="linearGradientFAFBFCFFFFCC_1480837912" x1="0" y1="445.0" x2="0" y2="505.0" gradientUnits="userSpaceOnUse" xlink:type="simple" xlink:actuate="onLoad" xlink:show="other" /><linearGradient xmlns:xlink="http://www.w3.org/1999/xlink" xlink:href="#linearGradientFF6666FF9696FFB6B6" id="linearGradientFF6666FF9696FFB6B6_113875369" x1="0" y1="453.0" x2="0" y2="488.0" gradientUnits="userSpaceOnUse" xlink:type="simple" xlink:actuate="onLoad" xlink:show="other" /><linearGradient id="linearGradientFF6666FF9696FFB6B6"><stop style="stop-color:#FF6666;stop-opacity:1;" offset="0.0" id="stopFF6666" /><stop style="stop-color:#FF9696;stop-opacity:1;" offset="0.5" id="stopFF9696" /><stop style="stop-color:#FFB6B6;stop-opacity:1;" offset="1.0" id="stopFFB6B6" /></linearGradient><linearGradient xmlns:xlink="http://www.w3.org/1999/xlink" xlink:href="#linearGradientFF6666FF9696FFB6B6" id="linearGradientFF6666FF9696FFB6B6_1775318922" x1="0" y1="267.0" x2="0" y2="302.0" gradientUnits="userSpaceOnUse" xlink:type="simple" xlink:actuate="onLoad" xlink:show="other" /><linearGradient xmlns:xlink="http://www.w3.org/1999/xlink" xlink:href="#linearGradient66FF6696FF96B6FFB6" id="linearGradient66FF6696FF96B6FFB6_2125544338" x1="0" y1="47.0" x2="0" y2="82.0" gradientUnits="userSpaceOnUse" xlink:type="simple" xlink:actuate="onLoad" xlink:show="other" /><linearGradient id="linearGradient66FF6696FF96B6FFB6"><stop style="stop-color:#66FF66;stop-opacity:1;" offset="0.0" id="stop66FF66" /><stop style="stop-color:#96FF96;stop-opacity:1;" offset="0.5" id="stop96FF96" /><stop style="stop-color:#B6FFB6;stop-opacity:1;" offset="1.0" id="stopB6FFB6" /></linearGradient><linearGradient xmlns:xlink="http://www.w3.org/1999/xlink" xlink:href="#linearGradientF8FBFEEDF5FCDEEDFAD4E7F8E2E5E9" id="linearGradientF8FBFEEDF5FCDEEDFAD4E7F8E2E5E9_946615383" x1="0" y1="440.0" x2="0" y2="545.0" gradientUnits="userSpaceOnUse" xlink:type="simple" xlink:actuate="onLoad" xlink:show="other" /></defs></svg>
